<svg width="32" height="32" viewBox="0 0 32 32" fill="none" xmlns="http://www.w3.org/2000/svg"><path fill-rule="evenodd" clip-rule="evenodd" d="M16 29C23.1797 29 29 23.1797 29 16C29 8.8203 23.1797 3 16 3C8.8203 3 3 8.8203 3 16C3 23.1797 8.8203 29 16 29ZM12 9C12 7.34315 13.3431 6 15 6H17C18.6569 6 20 7.34315 20 9V12H23C24.6569 12 26 13.3431 26 15V17C26 18.6569 24.6569 20 23 20H20V23C20 24.6569 18.6569 26 17 26H15C13.3431 26 12 24.6569 12 23V20H9C7.34315 20 6 18.6569 6 17V15C6 13.3431 7.34315 12 9 12H12V9ZM23 18H20H18V23C18 23.5523 17.5523 24 17 24H15C14.4477 24 14 23.5523 14 23V18H12H9C8.44772 18 8 17.5523 8 17V15C8 14.4477 8.44772 14 9 14H12H14V9C14 8.44772 14.4477 8 15 8H17C17.5523 8 18 8.44772 18 9V14H20H23C23.5523 14 24 14.4477 24 15V17C24 17.5523 23.5523 18 23 18Z" fill="black"/><circle cx="16" cy="16" r="13" stroke="black" stroke-width="2"/></svg>
